HIERARCHY
ROOT Hips
{
	OFFSET 0.00 86.18 0.00
	CHANNELS 6 Xposition Yposition Zposition Yrotation Xrotation Zrotation
	JOINT RightUpLeg
	{
		OFFSET -9.25 0.00 0.00
		CHANNELS 6 Xposition Yposition Zposition Yrotation Xrotation Zrotation
		JOINT RightLeg
		{
			OFFSET 0.00 -42.00 0.00
			CHANNELS 6 Xposition Yposition Zposition Yrotation Xrotation Zrotation
			JOINT RightFoot
			{
				OFFSET 0.00 -42.00 0.00
				CHANNELS 6 Xposition Yposition Zposition Yrotation Xrotation Zrotation
				End Site
				{
					OFFSET 0 -1.14 11.36
				}
			}
		}
	}
	JOINT LeftUpLeg
	{
		OFFSET 9.25 0.00 0.00
		CHANNELS 6 Xposition Yposition Zposition Yrotation Xrotation Zrotation
		JOINT LeftLeg
		{
			OFFSET 0.00 -42.00 0.00
			CHANNELS 6 Xposition Yposition Zposition Yrotation Xrotation Zrotation
			JOINT LeftFoot
			{
				OFFSET 0.00 -42.00 0.00
				CHANNELS 6 Xposition Yposition Zposition Yrotation Xrotation Zrotation
				End Site
				{
					OFFSET 0 -1.14 11.36
				}
			}
		}
	}
	JOINT Spine
	{
		OFFSET 0.00 10.46 0.00
		CHANNELS 6 Xposition Yposition Zposition Yrotation Xrotation Zrotation
		JOINT Spine1
		{
			OFFSET 0.00 9.75 0.00
			CHANNELS 6 Xposition Yposition Zposition Yrotation Xrotation Zrotation
			JOINT Spine2
			{
				OFFSET 0.00 10.15 0.00
				CHANNELS 6 Xposition Yposition Zposition Yrotation Xrotation Zrotation
				JOINT Spine3
				{
					OFFSET 0.00 9.75 0.00
					CHANNELS 6 Xposition Yposition Zposition Yrotation Xrotation Zrotation
			 		JOINT Neck
					{
						OFFSET 0.00 10.42 0.00
						CHANNELS 6 Xposition Yposition Zposition Yrotation Xrotation Zrotation
						JOINT Head
						{
							OFFSET 0.00 9.50 0.00
							CHANNELS 6 Xposition Yposition Zposition Yrotation Xrotation Zrotation
							End Site
							{
								OFFSET 0 16.00 0
							}
						}    
					} 
					JOINT RightShoulder
	 					{
						OFFSET -3.20 6.94 0.00
						CHANNELS 6 Xposition Yposition Zposition Yrotation Xrotation Zrotation
						JOINT RightArm
						{
							OFFSET -16.00 0.00 0.00
							CHANNELS 6 Xposition Yposition Zposition Yrotation Xrotation Zrotation
							JOINT RightForeArm
							{
								OFFSET -26.50 0.00 0.00
								CHANNELS 6 Xposition Yposition Zposition Yrotation Xrotation Zrotation
								JOINT RightHand
								{
									OFFSET -26.00 0.00 0.00
									CHANNELS 6 Xposition Yposition Zposition Yrotation Xrotation Zrotation
									End Site
									{
										OFFSET -17.50 0 0
									}
								}
							}
						}	
					}
					JOINT LeftShoulder
					{
						OFFSET 3.20 6.94 0.00
						CHANNELS 6 Xposition Yposition Zposition Yrotation Xrotation Zrotation
						JOINT LeftArm
						{
							OFFSET 16.00 0.00 0.00
							CHANNELS 6 Xposition Yposition Zposition Yrotation Xrotation Zrotation
							JOINT LeftForeArm
							{
								OFFSET 26.50 0.00 0.00
								CHANNELS 6 Xposition Yposition Zposition Yrotation Xrotation Zrotation
								JOINT LeftHand
								{
									OFFSET 26.00 0.00 0.00
									CHANNELS 6 Xposition Yposition Zposition Yrotation Xrotation Zrotation
									End Site
									{
										OFFSET 17.50 0 0
									}
								}
							}
						}
					}     			
				}
			}
		} 
	} 
}
MOTION
Frames: 15
Frame Time: 0.010
7.87 93.51 3.06 94.84 -1.04 6.41 -9.17 0.02 -0.08 -9.83 4.61 -8.80 0.10 -41.99 -0.13 -0.97 -1.65 -0.89 0.04 -42.09 -0.42 1.79 -3.71 4.90 9.17 -0.00 -0.04 5.09 4.00 -1.61 -0.11 -42.18 0.24 3.81 7.23 -2.24 -0.23 -41.99 0.72 0.78 -10.59 -1.94 0.06 10.46 0.06 0.83 3.16 -2.83 0.06 9.74 0.03 0.20 0.80 -0.71 0.05 10.15 0.01 0.30 1.35 -1.18 0.06 9.75 0.01 -0.42 -0.20 -0.22 0.07 10.42 -0.00 -0.42 -0.20 -0.22 0.02 9.52 -0.06 -7.32 -3.80 -3.67 -3.16 6.99 0.06 -1.10 1.89 -1.78 -15.98 0.05 0.01 19.41 -5.34 77.79 -26.44 -0.06 0.02 7.35 10.94 5.92 -25.93 -0.16 0.05 3.36 9.74 -13.38 3.20 6.90 0.04 -3.29 -4.85 -8.06 15.94 -0.05 0.04 -2.27 -6.28 -71.31 26.48 -0.04 0.05 -10.90 -15.01 0.40 26.01 0.09 0.22 2.41 19.25 4.90 
7.81 93.51 3.08 94.82 -1.03 6.40 -9.17 0.01 -0.08 -9.80 4.59 -8.77 0.10 -41.99 -0.12 -0.98 -1.64 -0.90 0.04 -42.08 -0.39 1.80 -3.69 4.88 9.19 -0.00 -0.02 5.15 4.05 -1.61 -0.10 -42.16 0.23 3.76 7.17 -2.23 -0.21 -41.99 0.65 0.78 -10.57 -1.94 0.06 10.46 0.06 0.80 3.14 -2.80 0.06 9.74 0.03 0.19 0.80 -0.70 0.05 10.15 0.01 0.29 1.34 -1.17 0.06 9.75 0.01 -0.42 -0.20 -0.22 0.07 10.42 -0.01 -0.42 -0.20 -0.22 0.02 9.52 -0.07 -7.29 -3.89 -3.73 -3.16 6.99 0.06 -1.12 1.90 -1.82 -15.98 0.05 0.02 19.45 -5.36 77.78 -26.44 -0.06 0.03 7.32 11.00 5.88 -25.94 -0.15 0.05 3.38 9.71 -13.42 3.21 6.90 0.04 -3.26 -4.78 -8.08 15.95 -0.05 0.05 -2.64 -6.30 -71.15 26.48 -0.04 0.06 -10.50 -14.76 0.34 26.01 0.08 0.22 2.65 19.56 4.98 
7.77 93.51 3.08 94.75 -1.04 6.42 -9.17 0.01 -0.06 -9.79 4.62 -8.80 0.11 -41.99 -0.11 -0.94 -1.67 -0.90 0.04 -42.07 -0.35 1.81 -3.68 4.86 9.19 -0.01 -0.05 5.14 4.01 -1.63 -0.09 -42.15 0.19 3.81 7.22 -2.23 -0.19 -41.99 0.59 0.80 -10.57 -1.94 0.06 10.46 0.06 0.80 3.13 -2.78 0.06 9.74 0.03 0.19 0.79 -0.70 0.06 10.15 0.01 0.29 1.33 -1.16 0.06 9.75 0.02 -0.42 -0.21 -0.22 0.07 10.42 -0.01 -0.42 -0.21 -0.22 0.03 9.52 -0.08 -7.29 -3.95 -3.75 -3.16 6.99 0.07 -1.15 1.91 -1.86 -15.98 0.05 0.02 19.57 -5.40 77.72 -26.45 -0.05 0.03 7.30 10.93 5.86 -25.95 -0.14 0.04 3.38 9.72 -13.44 3.21 6.90 0.03 -3.32 -4.77 -8.09 15.93 -0.05 0.05 -2.87 -6.25 -70.89 26.48 -0.05 0.08 -10.13 -14.48 0.15 26.01 0.07 0.22 2.97 20.12 5.01 
7.73 93.50 3.08 94.69 -1.06 6.44 -9.16 0.02 -0.05 -9.74 4.63 -8.83 0.12 -41.99 -0.10 -0.93 -1.67 -0.91 0.05 -42.06 -0.32 1.81 -3.68 4.87 9.20 -0.01 -0.06 5.19 4.01 -1.66 -0.07 -42.14 0.16 3.82 7.24 -2.21 -0.17 -41.99 0.54 0.82 -10.58 -1.94 0.06 10.46 0.06 0.79 3.13 -2.78 0.06 9.74 0.04 0.19 0.79 -0.70 0.05 10.15 0.01 0.29 1.33 -1.16 0.06 9.75 0.02 -0.42 -0.21 -0.22 0.07 10.42 -0.01 -0.42 -0.21 -0.22 0.03 9.51 -0.08 -7.29 -4.04 -3.77 -3.17 6.99 0.07 -1.18 1.91 -1.89 -15.97 0.05 0.04 19.65 -5.40 77.69 -26.45 -0.05 0.05 7.29 10.94 5.83 -25.95 -0.13 0.04 3.42 9.68 -13.46 3.21 6.91 0.03 -3.39 -4.78 -8.11 15.94 -0.05 0.04 -3.11 -6.13 -70.68 26.49 -0.05 0.07 -9.94 -14.13 0.02 26.01 0.07 0.20 3.48 20.87 5.00 
7.70 93.50 3.08 94.61 -1.07 6.45 -9.16 0.02 -0.04 -9.72 4.66 -8.86 0.12 -41.99 -0.09 -0.91 -1.70 -0.88 0.04 -42.06 -0.29 1.85 -3.68 4.88 9.20 -0.01 -0.08 5.20 4.00 -1.67 -0.07 -42.12 0.13 3.85 7.27 -2.21 -0.15 -41.99 0.49 0.84 -10.58 -1.94 0.06 10.46 0.07 0.79 3.12 -2.78 0.07 9.74 0.04 0.19 0.79 -0.70 0.05 10.15 0.01 0.29 1.33 -1.16 0.06 9.75 0.02 -0.42 -0.22 -0.22 0.07 10.41 -0.01 -0.42 -0.22 -0.22 0.03 9.51 -0.08 -7.33 -4.14 -3.78 -3.17 6.98 0.07 -1.20 1.90 -1.92 -15.97 0.04 0.06 19.68 -5.37 77.68 -26.46 -0.04 0.07 7.33 10.96 5.80 -25.96 -0.12 0.04 3.44 9.63 -13.45 3.21 6.91 0.03 -3.43 -4.79 -8.13 15.94 -0.05 0.07 -3.44 -5.78 -70.50 26.49 -0.05 0.10 -9.94 -13.89 -0.05 26.01 0.07 0.20 3.96 21.85 4.85 
7.67 93.49 3.07 94.53 -1.06 6.46 -9.16 0.02 -0.04 -9.68 4.65 -8.86 0.12 -41.99 -0.09 -0.89 -1.70 -0.90 0.04 -42.05 -0.26 1.87 -3.67 4.87 9.21 -0.02 -0.07 5.24 4.04 -1.67 -0.07 -42.11 0.12 3.85 7.24 -2.23 -0.14 -41.99 0.45 0.86 -10.59 -1.93 0.07 10.46 0.07 0.79 3.11 -2.78 0.07 9.74 0.04 0.19 0.79 -0.70 0.05 10.15 0.01 0.29 1.32 -1.16 0.06 9.75 0.02 -0.42 -0.22 -0.22 0.07 10.41 -0.02 -0.42 -0.22 -0.22 0.03 9.51 -0.08 -7.35 -4.22 -3.81 -3.17 6.98 0.07 -1.22 1.89 -1.95 -15.96 0.04 0.03 19.90 -5.50 77.57 -26.46 -0.05 0.04 7.19 10.80 5.83 -25.96 -0.11 0.04 3.49 9.58 -13.45 3.21 6.91 0.02 -3.46 -4.79 -8.15 15.94 -0.04 0.07 -3.77 -5.53 -70.34 26.49 -0.04 0.09 -10.02 -13.51 -0.13 26.01 0.07 0.17 4.59 22.89 4.62 
7.65 93.49 3.07 94.46 -1.05 6.45 -9.16 0.02 -0.02 -9.69 4.67 -8.87 0.12 -41.99 -0.08 -0.85 -1.75 -0.89 0.04 -42.05 -0.24 1.90 -3.65 4.88 9.21 -0.01 -0.09 5.24 3.99 -1.66 -0.06 -42.10 0.09 3.90 7.28 -2.22 -0.13 -41.99 0.40 0.90 -10.58 -1.95 0.06 10.46 0.07 0.77 3.08 -2.76 0.07 9.74 0.04 0.18 0.78 -0.69 0.05 10.15 0.01 0.28 1.31 -1.15 0.06 9.75 0.02 -0.43 -0.23 -0.22 0.08 10.41 -0.02 -0.43 -0.23 -0.23 0.04 9.51 -0.09 -7.42 -4.30 -3.81 -3.17 6.98 0.07 -1.24 1.88 -1.97 -15.97 0.04 0.07 19.78 -5.43 77.60 -26.46 -0.03 0.08 7.31 10.96 5.76 -25.97 -0.10 0.04 3.54 9.51 -13.44 3.21 6.91 0.03 -3.44 -4.76 -8.18 15.95 -0.04 0.07 -4.11 -5.23 -70.18 26.49 -0.04 0.09 -10.19 -13.15 -0.23 26.01 0.07 0.16 5.20 23.93 4.29 
7.63 93.49 3.07 94.37 -1.05 6.46 -9.15 0.02 -0.03 -9.62 4.65 -8.87 0.12 -41.99 -0.10 -0.87 -1.75 -0.90 0.05 -42.04 -0.23 1.96 -3.63 4.88 9.22 -0.02 -0.08 5.29 4.03 -1.68 -0.05 -42.09 0.09 3.92 7.25 -2.23 -0.11 -41.99 0.37 0.91 -10.59 -1.94 0.06 10.46 0.07 0.75 3.07 -2.75 0.06 9.74 0.04 0.18 0.78 -0.69 0.05 10.15 0.01 0.27 1.30 -1.15 0.06 9.75 0.02 -0.43 -0.23 -0.23 0.08 10.41 -0.02 -0.43 -0.23 -0.23 0.04 9.51 -0.09 -7.47 -4.38 -3.84 -3.17 6.98 0.07 -1.24 1.87 -1.99 -15.96 0.03 0.04 20.00 -5.57 77.45 -26.47 -0.05 0.04 7.20 10.78 5.81 -25.97 -0.10 0.03 3.57 9.49 -13.43 3.21 6.91 0.02 -3.44 -4.74 -8.18 15.95 -0.03 0.09 -4.38 -4.83 -70.07 26.49 -0.04 0.13 -10.43 -12.89 -0.35 26.01 0.05 0.16 5.74 24.91 3.92 
7.62 93.49 3.08 94.26 -1.06 6.46 -9.15 0.02 -0.02 -9.60 4.69 -8.89 0.13 -41.99 -0.09 -0.84 -1.79 -0.90 0.05 -42.04 -0.21 2.02 -3.61 4.85 9.22 -0.02 -0.10 5.30 4.01 -1.68 -0.04 -42.09 0.06 3.98 7.32 -2.23 -0.10 -41.99 0.34 0.93 -10.61 -1.94 0.06 10.46 0.07 0.74 3.05 -2.75 0.06 9.74 0.04 0.18 0.77 -0.69 0.05 10.15 0.01 0.27 1.30 -1.15 0.06 9.75 0.02 -0.44 -0.23 -0.23 0.07 10.41 -0.02 -0.44 -0.23 -0.23 0.04 9.51 -0.09 -7.59 -4.44 -3.80 -3.17 6.98 0.07 -1.24 1.87 -1.99 -15.96 0.04 0.07 19.87 -5.52 77.47 -26.47 -0.03 0.07 7.32 10.93 5.77 -25.98 -0.09 0.03 3.61 9.45 -13.44 3.21 6.91 0.02 -3.41 -4.69 -8.14 15.96 -0.03 0.09 -4.62 -4.53 -70.02 26.49 -0.02 0.11 -10.75 -12.56 -0.49 26.01 0.05 0.14 6.38 25.69 3.58 
7.61 93.49 3.08 94.15 -1.08 6.47 -9.16 0.02 -0.02 -9.55 4.72 -8.88 0.12 -41.99 -0.08 -0.83 -1.81 -0.92 0.05 -42.03 -0.19 2.07 -3.60 4.85 9.23 -0.02 -0.09 5.40 4.09 -1.69 -0.03 -42.08 0.07 3.95 7.29 -2.22 -0.09 -42.00 0.31 0.96 -10.64 -1.96 0.06 10.46 0.07 0.72 3.04 -2.74 0.06 9.74 0.04 0.17 0.77 -0.69 0.05 10.15 0.01 0.26 1.29 -1.14 0.05 9.75 0.02 -0.44 -0.24 -0.23 0.07 10.41 -0.02 -0.44 -0.24 -0.23 0.04 9.51 -0.08 -7.67 -4.51 -3.83 -3.17 6.98 0.07 -1.24 1.88 -2.00 -15.96 0.04 0.06 19.91 -5.60 77.39 -26.47 -0.03 0.07 7.30 10.93 5.78 -25.98 -0.08 0.03 3.66 9.39 -13.44 3.21 6.91 0.02 -3.33 -4.61 -8.09 15.95 -0.03 0.10 -4.83 -4.20 -69.96 26.49 -0.02 0.15 -11.03 -12.40 -0.70 26.01 0.03 0.15 6.84 26.31 3.17 
7.61 93.48 3.08 94.02 -1.09 6.49 -9.15 0.02 -0.01 -9.48 4.74 -8.90 0.12 -41.99 -0.08 -0.83 -1.82 -0.92 0.04 -42.03 -0.17 2.14 -3.59 4.86 9.23 -0.02 -0.11 5.43 4.06 -1.73 -0.03 -42.07 0.04 4.01 7.36 -2.19 -0.08 -42.00 0.29 1.00 -10.66 -1.99 0.06 10.46 0.06 0.72 3.03 -2.74 0.06 9.74 0.04 0.17 0.77 -0.69 0.05 10.15 0.01 0.26 1.29 -1.14 0.05 9.75 0.02 -0.45 -0.24 -0.23 0.06 10.41 -0.02 -0.45 -0.24 -0.23 0.04 9.51 -0.08 -7.82 -4.56 -3.81 -3.17 6.98 0.07 -1.24 1.88 -2.02 -15.96 0.04 0.09 19.83 -5.57 77.38 -26.47 -0.02 0.09 7.42 11.00 5.75 -25.98 -0.07 0.03 3.70 9.36 -13.45 3.21 6.91 0.02 -3.26 -4.51 -8.05 15.95 -0.03 0.12 -4.91 -3.88 -69.89 26.48 -0.02 0.18 -11.35 -12.26 -0.93 26.01 0.02 0.16 7.24 26.73 2.63 
7.60 93.48 3.08 93.91 -1.09 6.48 -9.15 0.02 -0.01 -9.42 4.74 -8.88 0.12 -41.99 -0.08 -0.83 -1.82 -0.93 0.04 -42.03 -0.15 2.20 -3.57 4.87 9.24 -0.02 -0.11 5.46 4.09 -1.73 -0.02 -42.07 0.04 4.04 7.36 -2.18 -0.07 -42.00 0.26 1.06 -10.68 -2.00 0.06 10.46 0.06 0.70 3.02 -2.71 0.05 9.74 0.04 0.17 0.76 -0.68 0.04 10.15 0.01 0.25 1.28 -1.13 0.05 9.75 0.02 -0.46 -0.24 -0.22 0.06 10.41 -0.03 -0.46 -0.24 -0.22 0.04 9.51 -0.08 -8.02 -4.60 -3.77 -3.17 6.98 0.07 -1.23 1.88 -2.04 -15.96 0.03 0.02 20.11 -5.85 77.19 -26.48 -0.04 0.03 7.19 10.76 5.85 -25.98 -0.07 0.03 3.74 9.33 -13.49 3.21 6.91 0.03 -3.19 -4.49 -8.03 15.95 -0.03 0.11 -4.95 -3.59 -69.86 26.48 -0.02 0.19 -11.63 -12.12 -1.11 26.01 0.01 0.18 7.62 26.81 1.93 
7.59 93.48 3.08 93.80 -1.10 6.49 -9.15 0.02 -0.01 -9.40 4.75 -8.92 0.13 -41.99 -0.07 -0.80 -1.85 -0.92 0.04 -42.02 -0.14 2.26 -3.54 4.88 9.24 -0.02 -0.12 5.43 4.08 -1.75 -0.01 -42.06 0.02 4.14 7.41 -2.17 -0.07 -42.00 0.24 1.10 -10.71 -2.01 0.06 10.46 0.06 0.69 3.00 -2.71 0.05 9.74 0.04 0.16 0.76 -0.68 0.04 10.15 0.01 0.25 1.27 -1.13 0.05 9.75 0.02 -0.47 -0.24 -0.22 0.05 10.41 -0.02 -0.47 -0.24 -0.22 0.04 9.51 -0.08 -8.25 -4.62 -3.70 -3.17 6.97 0.07 -1.24 1.88 -2.06 -15.96 0.03 0.05 20.00 -5.82 77.20 -26.48 -0.03 0.05 7.33 10.84 5.80 -25.98 -0.06 0.02 3.75 9.28 -13.51 3.21 6.91 0.03 -3.18 -4.51 -8.02 15.96 -0.03 0.11 -4.87 -3.21 -69.86 26.48 -0.02 0.18 -12.09 -12.02 -1.26 26.01 0.01 0.15 7.93 26.88 1.08 
7.58 93.48 3.08 93.66 -1.09 6.49 -9.15 0.02 -0.01 -9.35 4.73 -8.92 0.13 -41.99 -0.07 -0.78 -1.86 -0.93 0.05 -42.02 -0.13 2.32 -3.52 4.90 9.25 -0.03 -0.11 5.47 4.10 -1.76 -0.00 -42.06 0.01 4.20 7.42 -2.17 -0.06 -42.00 0.22 1.13 -10.73 -1.99 0.06 10.46 0.06 0.69 2.97 -2.70 0.05 9.74 0.04 0.16 0.75 -0.68 0.04 10.15 0.01 0.25 1.26 -1.13 0.04 9.75 0.02 -0.49 -0.24 -0.22 0.04 10.41 -0.03 -0.49 -0.24 -0.22 0.03 9.51 -0.08 -8.54 -4.62 -3.64 -3.18 6.97 0.06 -1.25 1.89 -2.08 -15.96 0.03 0.03 20.12 -5.94 77.12 -26.48 -0.03 0.03 7.27 10.75 5.82 -25.99 -0.06 0.02 3.77 9.22 -13.54 3.21 6.91 0.03 -3.21 -4.57 -8.04 15.97 -0.03 0.12 -4.72 -2.77 -69.86 26.48 -0.01 0.17 -12.57 -11.96 -1.43 26.01 0.01 0.15 8.29 26.62 0.17 
7.57 93.47 3.07 93.53 -1.09 6.49 -9.15 0.02 -0.01 -9.32 4.72 -8.94 0.13 -41.99 -0.07 -0.74 -1.85 -0.91 0.04 -42.02 -0.11 2.38 -3.51 4.91 9.24 -0.03 -0.11 5.49 4.11 -1.76 0.00 -42.05 0.01 4.29 7.44 -2.20 -0.04 -42.00 0.20 1.15 -10.76 -1.97 0.06 10.46 0.06 0.70 2.95 -2.70 0.05 9.74 0.04 0.17 0.75 -0.68 0.03 10.15 0.01 0.25 1.25 -1.13 0.04 9.75 0.01 -0.51 -0.24 -0.22 0.03 10.41 -0.03 -0.51 -0.24 -0.22 0.02 9.51 -0.07 -8.86 -4.64 -3.58 -3.18 6.97 0.06 -1.26 1.88 -2.08 -15.96 0.03 0.06 19.99 -5.90 77.15 -26.48 -0.02 0.06 7.38 10.86 5.77 -25.99 -0.05 0.03 3.81 9.15 -13.57 3.20 6.91 0.02 -3.28 -4.68 -8.06 15.98 -0.03 0.11 -4.51 -2.34 -69.84 26.48 -0.00 0.16 -12.97 -11.95 -1.64 26.01 0.02 0.14 8.58 26.28 -0.78 
